<mxfile host="app.diagrams.net" agent="Mozilla/5.0 (Macintosh; Intel Mac OS X 10_15_7) AppleWebKit/537.36 (KHTML, like Gecko) Chrome/136.0.0.0 Safari/537.36" version="27.0.6">
  <diagram name="Page-1" id="-IyL6kfEa4fE4aquBk-G">
    <mxGraphModel dx="788" dy="430" grid="0" gridSize="10" guides="1" tooltips="1" connect="1" arrows="1" fold="1" page="0" pageScale="1" pageWidth="850" pageHeight="1100" math="0" shadow="0">
      <root>
        <mxCell id="0" />
        <mxCell id="1" parent="0" />
        <mxCell id="qsVcEqVT0xMEpfyiaClq-1" value="Table Extraction Challanges" style="rounded=1;whiteSpace=wrap;html=1;fontFamily=Times New Roman;fontSize=15;fontStyle=1;fillColor=#dae8fc;strokeColor=#6c8ebf;" parent="1" vertex="1">
          <mxGeometry x="348" y="179" width="192" height="60" as="geometry" />
        </mxCell>
        <mxCell id="qsVcEqVT0xMEpfyiaClq-2" value="1. Diverse Table Formats" style="rounded=1;whiteSpace=wrap;html=1;fontFamily=Times New Roman;fontSize=15;fillColor=#fff2cc;strokeColor=#d6b656;" parent="1" vertex="1">
          <mxGeometry x="135" y="49" width="192" height="60" as="geometry" />
        </mxCell>
        <mxCell id="qsVcEqVT0xMEpfyiaClq-3" value="3. Context Dependency" style="rounded=1;whiteSpace=wrap;html=1;fontFamily=Times New Roman;fontSize=15;fillColor=#fff2cc;strokeColor=#d6b656;" parent="1" vertex="1">
          <mxGeometry x="629" y="180" width="192" height="60" as="geometry" />
        </mxCell>
        <mxCell id="qsVcEqVT0xMEpfyiaClq-4" value="6. Multiple Tables per Document/Image" style="rounded=1;whiteSpace=wrap;html=1;fontFamily=Times New Roman;fontSize=15;fillColor=#fff2cc;strokeColor=#d6b656;" parent="1" vertex="1">
          <mxGeometry x="70" y="178" width="192" height="60" as="geometry" />
        </mxCell>
        <mxCell id="qsVcEqVT0xMEpfyiaClq-5" value="5. Multiple Tables per Document/Image" style="rounded=1;whiteSpace=wrap;html=1;fontFamily=Times New Roman;fontSize=15;fillColor=#fff2cc;strokeColor=#d6b656;" parent="1" vertex="1">
          <mxGeometry x="131" y="286" width="192" height="60" as="geometry" />
        </mxCell>
        <mxCell id="qsVcEqVT0xMEpfyiaClq-6" value="2. Inconsistent Layouts" style="rounded=1;whiteSpace=wrap;html=1;fontFamily=Times New Roman;fontSize=15;fillColor=#fff2cc;strokeColor=#d6b656;" parent="1" vertex="1">
          <mxGeometry x="564" y="49" width="192" height="60" as="geometry" />
        </mxCell>
        <mxCell id="qsVcEqVT0xMEpfyiaClq-7" value="4. Data Quantity" style="rounded=1;whiteSpace=wrap;html=1;fontFamily=Times New Roman;fontSize=15;fillColor=#fff2cc;strokeColor=#d6b656;" parent="1" vertex="1">
          <mxGeometry x="564" y="287" width="192" height="60" as="geometry" />
        </mxCell>
        <mxCell id="qsVcEqVT0xMEpfyiaClq-9" value="" style="endArrow=classic;html=1;rounded=0;exitX=0.75;exitY=1;exitDx=0;exitDy=0;entryX=0;entryY=0;entryDx=0;entryDy=0;" parent="1" source="qsVcEqVT0xMEpfyiaClq-2" target="qsVcEqVT0xMEpfyiaClq-1" edge="1">
          <mxGeometry width="50" height="50" relative="1" as="geometry">
            <mxPoint x="408" y="287" as="sourcePoint" />
            <mxPoint x="458" y="237" as="targetPoint" />
          </mxGeometry>
        </mxCell>
        <mxCell id="qsVcEqVT0xMEpfyiaClq-11" value="" style="endArrow=classic;html=1;rounded=0;exitX=1;exitY=0.5;exitDx=0;exitDy=0;entryX=0;entryY=0.5;entryDx=0;entryDy=0;" parent="1" source="qsVcEqVT0xMEpfyiaClq-4" target="qsVcEqVT0xMEpfyiaClq-1" edge="1">
          <mxGeometry width="50" height="50" relative="1" as="geometry">
            <mxPoint x="289" y="119" as="sourcePoint" />
            <mxPoint x="358" y="191" as="targetPoint" />
          </mxGeometry>
        </mxCell>
        <mxCell id="qsVcEqVT0xMEpfyiaClq-12" value="" style="endArrow=classic;html=1;rounded=0;exitX=0.75;exitY=0;exitDx=0;exitDy=0;entryX=0;entryY=1;entryDx=0;entryDy=0;" parent="1" source="qsVcEqVT0xMEpfyiaClq-5" target="qsVcEqVT0xMEpfyiaClq-1" edge="1">
          <mxGeometry width="50" height="50" relative="1" as="geometry">
            <mxPoint x="299" y="129" as="sourcePoint" />
            <mxPoint x="368" y="201" as="targetPoint" />
          </mxGeometry>
        </mxCell>
        <mxCell id="qsVcEqVT0xMEpfyiaClq-13" value="" style="endArrow=classic;html=1;rounded=0;exitX=0.25;exitY=1;exitDx=0;exitDy=0;entryX=1;entryY=0;entryDx=0;entryDy=0;" parent="1" source="qsVcEqVT0xMEpfyiaClq-6" target="qsVcEqVT0xMEpfyiaClq-1" edge="1">
          <mxGeometry width="50" height="50" relative="1" as="geometry">
            <mxPoint x="309" y="139" as="sourcePoint" />
            <mxPoint x="378" y="211" as="targetPoint" />
          </mxGeometry>
        </mxCell>
        <mxCell id="qsVcEqVT0xMEpfyiaClq-14" value="" style="endArrow=classic;html=1;rounded=0;exitX=0;exitY=0.5;exitDx=0;exitDy=0;" parent="1" source="qsVcEqVT0xMEpfyiaClq-3" edge="1">
          <mxGeometry width="50" height="50" relative="1" as="geometry">
            <mxPoint x="319" y="149" as="sourcePoint" />
            <mxPoint x="541" y="210" as="targetPoint" />
          </mxGeometry>
        </mxCell>
        <mxCell id="qsVcEqVT0xMEpfyiaClq-15" value="" style="endArrow=classic;html=1;rounded=0;exitX=0.25;exitY=0;exitDx=0;exitDy=0;entryX=1;entryY=1;entryDx=0;entryDy=0;" parent="1" source="qsVcEqVT0xMEpfyiaClq-7" target="qsVcEqVT0xMEpfyiaClq-1" edge="1">
          <mxGeometry width="50" height="50" relative="1" as="geometry">
            <mxPoint x="329" y="159" as="sourcePoint" />
            <mxPoint x="398" y="231" as="targetPoint" />
          </mxGeometry>
        </mxCell>
      </root>
    </mxGraphModel>
  </diagram>
</mxfile>
